<svg width="150" height="28" viewBox="0 0 150 28" fill="none" xmlns="http://www.w3.org/2000/svg">
    <path d="M1.99194 5.2H5.87994V18.832H14.3039V22H1.99194V5.2ZM22.2626 22.192C20.9026 22.192 19.6786 21.912 18.5906 21.352C17.5186 20.776 16.6786 19.984 16.0706 18.976C15.4626 17.968 15.1586 16.824 15.1586 15.544C15.1586 14.264 15.4626 13.12 16.0706 12.112C16.6786 11.104 17.5186 10.32 18.5906 9.76C19.6786 9.184 20.9026 8.896 22.2626 8.896C23.6226 8.896 24.8386 9.184 25.9106 9.76C26.9826 10.32 27.8226 11.104 28.4306 12.112C29.0386 13.12 29.3426 14.264 29.3426 15.544C29.3426 16.824 29.0386 17.968 28.4306 18.976C27.8226 19.984 26.9826 20.776 25.9106 21.352C24.8386 21.912 23.6226 22.192 22.2626 22.192ZM22.2626 19.12C23.2226 19.12 24.0066 18.8 24.6146 18.16C25.2386 17.504 25.5506 16.632 25.5506 15.544C25.5506 14.456 25.2386 13.592 24.6146 12.952C24.0066 12.296 23.2226 11.968 22.2626 11.968C21.3026 11.968 20.5106 12.296 19.8866 12.952C19.2626 13.592 18.9506 14.456 18.9506 15.544C18.9506 16.632 19.2626 17.504 19.8866 18.16C20.5106 18.8 21.3026 19.12 22.2626 19.12ZM45.1651 9.088V19.84C45.1651 22.208 44.5491 23.968 43.3171 25.12C42.0851 26.272 40.2851 26.848 37.9171 26.848C36.6691 26.848 35.4851 26.696 34.3651 26.392C33.2451 26.088 32.3171 25.648 31.5811 25.072L33.0691 22.384C33.6131 22.832 34.3011 23.184 35.1331 23.44C35.9651 23.712 36.7971 23.848 37.6291 23.848C38.9251 23.848 39.8771 23.552 40.4851 22.96C41.1091 22.384 41.4211 21.504 41.4211 20.32V19.768C40.4451 20.84 39.0851 21.376 37.3411 21.376C36.1571 21.376 35.0691 21.12 34.0771 20.608C33.1011 20.08 32.3251 19.344 31.7491 18.4C31.1731 17.456 30.8851 16.368 30.8851 15.136C30.8851 13.904 31.1731 12.816 31.7491 11.872C32.3251 10.928 33.1011 10.2 34.0771 9.688C35.0691 9.16 36.1571 8.896 37.3411 8.896C39.2131 8.896 40.6371 9.512 41.6131 10.744V9.088H45.1651ZM38.0851 18.304C39.0771 18.304 39.8851 18.016 40.5091 17.44C41.1491 16.848 41.4691 16.08 41.4691 15.136C41.4691 14.192 41.1491 13.432 40.5091 12.856C39.8851 12.264 39.0771 11.968 38.0851 11.968C37.0931 11.968 36.2771 12.264 35.6371 12.856C34.9971 13.432 34.6771 14.192 34.6771 15.136C34.6771 16.08 34.9971 16.848 35.6371 17.44C36.2771 18.016 37.0931 18.304 38.0851 18.304ZM54.7938 22.192C53.4338 22.192 52.2098 21.912 51.1218 21.352C50.0498 20.776 49.2098 19.984 48.6018 18.976C47.9938 17.968 47.6898 16.824 47.6898 15.544C47.6898 14.264 47.9938 13.12 48.6018 12.112C49.2098 11.104 50.0498 10.32 51.1218 9.76C52.2098 9.184 53.4338 8.896 54.7938 8.896C56.1538 8.896 57.3698 9.184 58.4418 9.76C59.5138 10.32 60.3538 11.104 60.9618 12.112C61.5698 13.12 61.8738 14.264 61.8738 15.544C61.8738 16.824 61.5698 17.968 60.9618 18.976C60.3538 19.984 59.5138 20.776 58.4418 21.352C57.3698 21.912 56.1538 22.192 54.7938 22.192ZM54.7938 19.12C55.7538 19.12 56.5378 18.8 57.1458 18.16C57.7698 17.504 58.0818 16.632 58.0818 15.544C58.0818 14.456 57.7698 13.592 57.1458 12.952C56.5378 12.296 55.7538 11.968 54.7938 11.968C53.8338 11.968 53.0418 12.296 52.4178 12.952C51.7938 13.592 51.4818 14.456 51.4818 15.544C51.4818 16.632 51.7938 17.504 52.4178 18.16C53.0418 18.8 53.8338 19.12 54.7938 19.12Z" fill="#111111"></path>
</svg>
